PathFileType	4	(X/Y/Z)	s06c0103.trc
DataRate	CameraRate	NumFrames	NumMarkers	Units	OrigDataRate	OrigDataStartFrame	OrigNumFrames
200	200	5	48	mm	200	1500	2000
Frame#	Time	racr			lacr			c7			jug			rlel			rdr			llel			ldr			s2			lic			ric			lasi			rasi			rpsi			lpsi			rgt			lgt			rth1			rth2			rth3			rth4			rlfc			rmfc			rsh1			rsh2			rsh3			rsh4			rlmal			rcal			rtoe			rmt5			lth1			lth2			lth4			lth3			llfc			lmfc			llmal			lcal			lmt5			lsh1			lsh2			lsh3			lsh4			ltoe			SBIKE			LBIKE			RBIKE			
		X1	Y1	Z1	X2	Y2	Z2	X3	Y3	Z3	X4	Y4	Z4	X5	Y5	Z5	X6	Y6	Z6	X7	Y7	Z7	X8	Y8	Z8	X9	Y9	Z9	X10	Y10	Z10	X11	Y11	Z11	X12	Y12	Z12	X13	Y13	Z13	X14	Y14	Z14	X15	Y15	Z15	X16	Y16	Z16	X17	Y17	Z17	X18	Y18	Z18	X19	Y19	Z19	X20	Y20	Z20	X21	Y21	Z21	X22	Y22	Z22	X23	Y23	Z23	X24	Y24	Z24	X25	Y25	Z25	X26	Y26	Z26	X27	Y27	Z27	X28	Y28	Z28	X29	Y29	Z29	X30	Y30	Z30	X31	Y31	Z31	X32	Y32	Z32	X33	Y33	Z33	X34	Y34	Z34	X35	Y35	Z35	X36	Y36	Z36	X37	Y37	Z37	X38	Y38	Z38	X39	Y39	Z39	X40	Y40	Z40	X41	Y41	Z41	X42	Y42	Z42	X43	Y43	Z43	X44	Y44	Z44	X45	Y45	Z45	X46	Y46	Z46	X47	Y47	Z47	X48	Y48	Z48	
1500	7.5000	506.124137	1294.408837	-74.984475	517.612598	1283.102138	-372.887160	521.456504	1346.665835	-226.286331	495.539838	1190.395293	-211.257392	501.985694	1043.252248	30.084752	708.095123	927.958265	-51.362721	510.697639	1033.998663	-483.983634	710.538463	919.488997	-412.634871	-23.584417	1142.804081	-233.129772	138.698554	1089.222560	-384.012259	114.646823	1129.266176	-57.894969	155.370678	1037.796770	-356.067981	142.947100	1088.387197	-86.133653	3.117951	1181.990973	-201.568809	7.627096	1176.102134	-260.970974	95.053224	1076.484093	-19.386375	94.777013	1011.595371	-416.095189	204.052097	1013.836017	-18.197688	292.575367	996.797233	-27.375265	358.247976	940.484739	-29.236712	303.614337	1026.209643	-49.442377	431.640435	862.098576	-58.526763	419.128028	835.768606	-171.070093	386.569032	743.711554	-31.797830	365.268987	660.684222	-51.076751	308.961472	594.592050	-49.711780	386.064367	653.881419	-84.853791	258.506029	519.794863	-55.550294	191.495799	495.793610	-103.662838	459.847318	429.828825	-97.356402	359.533994	428.379387	-30.283821	136.836179	894.524239	-436.642460	203.575291	838.477333	-436.081882	233.878495	859.222671	-428.044754	233.672378	754.416499	-429.528433	263.551456	649.807086	-403.836975	273.520761	635.134180	-287.937240	51.196682	352.802725	-370.301832	-15.616978	373.476619	-321.794743	103.265220	218.016578	-399.018230	209.710923	557.031416	-419.349413	177.342410	480.647006	-392.999073	109.643959	424.440760	-387.539439	202.166655	470.100391	-364.691965	174.145207	165.707342	-341.994796	-204.583580	865.238539	-210.790235	-50.888909	80.159824	-411.271776	-50.929588	80.179558	-13.690480	
1501	7.5050	507.233901	1292.947844	-74.800385	517.350467	1281.853976	-373.348454	522.095029	1345.544174	-226.730039	496.546845	1189.489515	-211.531021	502.408924	1041.625707	30.620016	708.490200	927.163452	-50.936073	510.078661	1032.457087	-483.325692	710.567282	919.304131	-411.954267	-22.922249	1141.796124	-232.765307	138.826364	1088.395754	-383.430412	115.909055	1126.849352	-57.318982	155.579220	1037.008344	-355.888416	144.392154	1086.498251	-86.069045	3.901435	1180.916000	-200.810155	8.417913	1175.201243	-260.700390	95.635401	1072.691026	-19.288576	95.340210	1011.442786	-416.332801	204.388472	1008.151936	-17.742223	292.544435	989.236363	-26.758731	357.083358	931.524355	-28.957591	304.310459	1018.670735	-48.711611	429.034927	851.794354	-57.686528	417.152565	824.973058	-169.665066	384.972218	732.894812	-30.904132	365.312798	649.445276	-50.396443	310.310735	582.454998	-49.368344	385.284251	643.164783	-83.932047	261.166490	507.540791	-55.252748	194.628560	482.037785	-103.346415	464.650583	422.558135	-97.101460	364.254347	418.760138	-29.813406	139.199608	895.845872	-436.767307	206.877622	841.032406	-436.059270	236.756980	862.185534	-427.619726	238.443098	757.508081	-430.048511	269.035636	653.089433	-404.163416	277.903675	638.874100	-288.142135	48.762221	362.113624	-370.024693	-17.790236	384.162838	-321.475262	98.172938	226.607334	-398.880884	212.931838	561.511357	-419.462535	178.559968	486.112921	-392.754115	109.353902	431.636876	-387.195141	202.855658	475.149961	-364.116596	168.033702	172.772499	-341.851791	-204.225166	865.383130	-210.851468	-50.851549	80.118983	-411.186120	-50.859862	80.010923	-13.695047	
1502	7.5100	508.440951	1291.508409	-74.648917	517.115718	1280.801525	-373.643151	522.730571	1344.579146	-227.063190	496.163090	1188.042316	-216.199284	503.167808	1040.041196	31.186588	708.929157	926.271914	-50.507622	509.378730	1031.131981	-482.704149	710.700538	919.157524	-411.390289	-22.307685	1140.931850	-232.169040	139.045557	1087.926419	-382.965481	117.183979	1124.331129	-56.724748	155.805692	1036.196311	-355.741226	145.836489	1084.500605	-85.970077	4.863534	1179.824057	-200.010819	9.009813	1174.388865	-259.667412	95.989658	1068.705886	-19.278634	96.140789	1011.547492	-416.587580	204.786242	1002.190900	-17.100741	292.531735	981.550347	-25.730485	355.721569	922.206192	-28.357984	305.025420	1010.799351	-47.744909	426.052099	840.872737	-56.577242	415.023687	813.762040	-168.083841	383.238149	721.712723	-29.968701	365.160001	637.872753	-49.813496	311.371152	569.852528	-49.197535	385.285303	632.089342	-83.422436	263.698666	494.945745	-55.651854	197.646626	468.298805	-103.216939	468.972800	414.562743	-96.819417	368.609351	408.727820	-29.629908	141.663793	897.541369	-436.767135	210.364670	843.839070	-436.022690	239.806849	865.449100	-427.230477	243.364536	760.934501	-430.745384	274.592251	656.558628	-404.650725	282.365961	642.870541	-288.511152	46.809632	371.614501	-369.767377	-19.402511	394.977523	-321.181040	93.644969	235.457161	-398.634149	216.356787	566.254271	-419.646744	180.201740	492.185531	-393.245865	109.513719	438.849515	-386.625076	203.568414	480.331128	-363.163610	162.513205	180.317525	-341.763824	-203.954227	865.364218	-210.639836	-50.796766	80.115365	-411.142972	-50.809986	79.948875	-13.654951	
1503	7.5150	509.622731	1290.106498	-74.464744	516.896230	1279.835918	-373.809689	523.380167	1343.687528	-227.336826	497.317882	1187.078197	-216.730207	504.107148	1038.615799	31.813761	709.384033	925.398824	-50.206609	508.808317	1029.748080	-482.213617	710.871653	919.067513	-410.912771	-21.561105	1139.906384	-231.688097	139.430759	1087.687867	-382.547014	118.490608	1121.536047	-56.158183	156.077524	1035.847655	-355.431180	147.230611	1082.231225	-85.966845	5.776103	1178.591522	-198.854494	9.590247	1173.491286	-258.647568	96.620060	1064.668233	-19.379971	97.228281	1012.058932	-416.761402	204.876076	996.143211	-16.443863	292.209939	973.163408	-25.265712	353.921157	912.876366	-27.317406	305.780138	1002.695596	-46.303628	422.688829	829.540653	-55.353035	412.463493	802.372338	-165.982971	381.169813	710.222865	-29.301505	364.685870	626.037478	-49.440719	312.236417	557.016589	-49.292858	385.015015	620.899031	-83.069498	266.154719	482.659930	-55.684431	200.530575	454.989760	-103.372481	472.834961	405.950072	-96.632532	372.640719	398.472744	-29.556281	144.392762	899.408272	-436.798729	214.002141	846.921318	-436.039321	242.966494	868.916514	-426.828822	248.401795	764.400037	-431.055588	280.160127	660.133883	-405.269352	287.168631	646.958868	-288.979054	45.336342	381.413969	-369.580555	-20.536860	406.090486	-320.937813	89.751437	244.779926	-398.571719	219.938786	571.213118	-419.872648	182.009735	497.949310	-393.328985	109.923309	446.507595	-386.339793	204.804894	486.164902	-362.857398	157.583208	188.288339	-341.737890	-203.755607	865.328627	-210.518387	-50.743282	80.064354	-411.092933	-50.698114	79.806231	-13.629993	
1504	7.5200	510.852039	1288.697155	-74.211132	516.748226	1279.012281	-373.948790	524.089708	1342.869685	-227.564830	498.173842	1186.093346	-217.517147	505.199824	1037.500065	32.505772	709.897548	924.721474	-50.082271	508.310961	1028.581574	-481.806095	711.055103	919.018424	-410.697122	-21.002698	1138.971738	-230.799418	139.884699	1087.716180	-382.208113	119.813164	1118.622820	-55.535070	156.040732	1035.346427	-354.045617	148.488253	1079.707306	-85.857290	6.687405	1177.829599	-198.184052	10.260917	1172.857860	-258.009093	97.240309	1060.750373	-19.340668	98.458408	1012.717231	-416.533217	205.151725	989.964976	-15.785972	291.916800	965.044311	-23.894837	352.134525	903.024807	-26.487798	306.267669	994.261082	-44.360478	419.050980	817.805243	-53.973162	409.549659	790.483740	-162.461203	378.727516	698.454824	-28.653022	363.967551	614.022392	-49.278742	312.869772	544.049467	-49.594069	384.448784	609.488229	-82.862665	268.339790	470.528805	-55.955321	203.095331	442.053340	-103.680352	476.111240	396.880294	-96.532288	375.953286	388.173045	-29.592047	147.276136	901.524150	-436.801856	217.783693	850.282960	-436.024807	246.297371	872.687594	-426.479637	253.530374	768.385268	-431.857414	285.808567	663.940727	-405.946644	292.042862	651.411142	-289.685532	44.382447	391.470624	-369.446491	-21.024398	417.294270	-320.806652	86.400970	254.159212	-398.473390	223.685798	576.432667	-420.205045	184.041491	504.131747	-393.447678	110.663482	454.446696	-386.137675	206.357327	492.265658	-362.801127	153.204650	196.521904	-341.654682	-203.634016	865.327484	-210.509649	-50.642969	80.073224	-411.066939	-50.652486	79.788615	-13.591710	
